<svg xmlns="http://www.w3.org/2000/svg" width="14" height="15" viewBox="0 0 14 15">
    <g fill="none" fill-rule="nonzero">
        <path fill="#FFF" d="M12.084.737L1.032 1.916c-.664.073-1.106.663-.958 1.326.884 4.053.368 8.18 0 10.242-.148.663.368 1.253 1.031 1.253h11.053c.663 0 1.179-.59 1.105-1.253-.737-4.2-.295-9.137.074-11.495A1.128 1.128 0 0 0 12.084.737z"/>
        <circle cx="3.684" cy="4.421" r="1" fill="#0095DA"/>
        <path fill="#0095DA" d="M6.632 10.463c-2.8 0-3.537-2.284-3.537-3.537 0-.294.22-.59.59-.59.294 0 .515.222.589.517 0 .22.073 2.431 2.358 2.431 2.284 0 2.357-2.137 2.357-2.431 0-.295.222-.516.59-.516.295 0 .516.22.516.516.073 1.326-.663 3.61-3.463 3.61z"/>
        <circle cx="9.579" cy="4.421" r="1" fill="#0095DA"/>
    </g>
</svg>
