<svg width="30" height="33" xmlns="http://www.w3.org/2000/svg" xmlns:xlink="http://www.w3.org/1999/xlink">
  <defs>
    <path d="M8.182 9.122l.84 6.851c.53 4.317.41 8.69-.353 12.97l-.841 4.708h23.699l-.634-5.091a59.865 59.865 0 0 1-.15-13.462l.805-7.9L8.182 9.122zm23.673-4.585c1.177-.097 2.208.801 2.303 2.007.01.134.009.269-.005.403l-.858 8.423a57.173 57.173 0 0 0 .143 12.857l.696 5.585c.15 1.2-.68 2.296-1.85 2.449-.09.012-.18.017-.271.017H7.315c-1.181 0-2.139-.98-2.139-2.19 0-.132.012-.264.035-.394l.933-5.224c.718-4.015.83-8.119.333-12.169L5.58 8.995c-.147-1.2.683-2.295 1.855-2.446.047-.006.047-.006.095-.01l24.325-2.002zM15.662 16.72c-.93 0-1.679-.77-1.679-1.714 0-.945.749-1.715 1.679-1.715s1.678.77 1.678 1.715c0 .944-.749 1.714-1.678 1.714zm9.228 0c-.93 0-1.678-.77-1.678-1.714 0-.945.748-1.715 1.678-1.715.93 0 1.678.77 1.678 1.715 0 .944-.748 1.714-1.678 1.714zm-11.97 5.254c-.162-.69.277-1.38.98-1.538a1.307 1.307 0 0 1 1.565.963c.602 2.57 2.117 3.74 4.867 3.74 2.741 0 4.222-1.16 4.773-3.718a1.306 1.306 0 0 1 1.548-.99 1.284 1.284 0 0 1 1.007 1.521c-.808 3.755-3.362 5.753-7.328 5.753-3.96 0-6.537-1.988-7.412-5.73z" id="a"/>
  </defs>
  <g transform="translate(-5 -4)" fill="none" fill-rule="evenodd">
    <path d="M0 0h40v40H0z"/>
    <use fill="#000" xlink:href="#a"/>
  </g>
</svg>
