<svg xmlns="http://www.w3.org/2000/svg" xmlns:xlink="http://www.w3.org/1999/xlink" width="32" height="32" viewBox="0 0 32 32">
    <defs>
        <path id="a" d="M32 16v5.35C32 28.6 23.25 32 16 32 7.15 32 0 24.85 0 16S7.15 0 16 0s16 7.15 16 16z"/>
        <linearGradient id="c" x1="208.256%" x2="-.66%" y1="-57.934%" y2="84.695%">
            <stop offset="0%" stop-color="#007BB5"/>
            <stop offset="100%" stop-color="#123D89"/>
        </linearGradient>
        <linearGradient id="d" x1="95.132%" x2="23.348%" y1="13.31%" y2="62.534%">
            <stop offset="0%" stop-color="#947CC1"/>
            <stop offset="100%" stop-color="#7251A1"/>
        </linearGradient>
        <linearGradient id="e" x1="208.535%" x2="-.325%" y1="-57.876%" y2="84.677%">
            <stop offset="0%" stop-color="#007BB5"/>
            <stop offset="100%" stop-color="#123D89"/>
        </linearGradient>
        <linearGradient id="f" x1="75.704%" x2="32.04%" y1="32.763%" y2="72.117%">
            <stop offset="29.21%" stop-color="#F9B260"/>
            <stop offset="100%" stop-color="#F37021"/>
        </linearGradient>
        <linearGradient id="g" x1="77.293%" x2="9.634%" y1="66.519%" y2="24.548%">
            <stop offset="0%" stop-color="#A7E3FF"/>
            <stop offset="100%" stop-color="#0095DA"/>
        </linearGradient>
        <linearGradient id="h" x1="69.242%" x2="-19.42%" y1="36.835%" y2="74.128%">
            <stop offset="0%" stop-color="#F9B260"/>
            <stop offset="100%" stop-color="#F37021"/>
        </linearGradient>
        <linearGradient id="i" x1="207.977%" x2="-.939%" y1="-57.934%" y2="84.695%">
            <stop offset="0%" stop-color="#007BB5"/>
            <stop offset="100%" stop-color="#123D89"/>
        </linearGradient>
        <linearGradient id="j" x1="208.127%" x2="-.789%" y1="-57.934%" y2="84.695%">
            <stop offset="0%" stop-color="#007BB5"/>
            <stop offset="100%" stop-color="#123D89"/>
        </linearGradient>
    </defs>
    <g fill="none" fill-rule="evenodd">
        <circle cx="16" cy="16" r="16" fill="#DAF3FF" fill-rule="nonzero"/>
        <path fill="#A8DAE9" fill-rule="nonzero" d="M29.3 29l-.75.5c-.05 0-.05.1 0 .1l.9.4c.05 0 .1 0 .1-.05l-.15-.9c-.05-.05-.1-.05-.1-.05zM11.4 1.9l-.65-.35a.24.24 0 0 0-.3.1c-.05.1 0 .25.1.3l.65.35c.1.05.25 0 .3-.1.05-.1 0-.25-.1-.3zM2.05 27.7l-.4.6c-.05.1-.05.25.05.3.1.05.25.05.3-.05l.4-.6c.05-.1.05-.25-.05-.3-.1-.05-.2-.05-.3.05zM2.2 5.85c0 .2-.15.35-.35.35-.2 0-.35-.15-.35-.35 0-.2.15-.35.35-.35.2 0 .35.15.35.35zM30.7 1.35c0 .2-.15.35-.35.35-.2 0-.35-.15-.35-.35 0-.2.15-.35.35-.35.2 0 .35.15.35.35z" opacity=".8"/>
        <mask id="b" fill="#fff">
            <use xlink:href="#a"/>
        </mask>
        <g fill-rule="nonzero" mask="url(#b)">
            <g transform="translate(-.5 3.5)">
                <path fill="url(#c)" d="M13.45 19.6c-1.5 0-2.7 1.2-2.7 2.7v.3a2.71 2.71 0 0 0 2.7 2.4c1.4 0 2.55-1.05 2.7-2.4v-.3c0-1.5-1.2-2.7-2.7-2.7z"/>
                <path fill="url(#d)" d="M17.2 16.6l-3.75 6.05H4.1c-2.05 0-3.7-1.65-3.7-3.7V8.35C.35 3.75 4.1 0 8.7 0h10.55c2.05 0 3.7 1.65 3.7 3.7v10.65L17.2 16.6z"/>
                <path fill="url(#e)" d="M25.15 19.6c-1.5 0-2.7 1.2-2.7 2.7v.3a2.71 2.71 0 0 0 2.7 2.4c1.4 0 2.55-1.05 2.7-2.4v-.3c.05-1.5-1.2-2.7-2.7-2.7z"/>
                <path fill="url(#f)" d="M26.85 12.1c-.35-1.6-.75-3.6-.95-4-.9-2.25-3.1-3.85-5.65-3.85h-.4c-3.5 0-6.4 2.85-6.4 6.4v12h1.1c.55 0 1-.4 1.2-.9.15-.5.6-1.1 1.6-1.75.3-.2.55-.15.9-.15 1.5 0 2.15.6 2.8 2 0 0 .3.8 1.55.8h3.7v-8.3h1.05s-.25-1-.5-2.25z"/>
                <path fill="#FCD2A1" d="M20.5 14.35C19.7 14 21.6 9 21.6 9c-.4-1.1-3.15-.85-3.6-2.35-.4-1.35.75-2.05.95-2.35-2.9.4-5.15 2.7-5.5 5.6l-.05.9v11.8h1.1c.55 0 1-.4 1.2-.9.15-.5.6-1.1 1.6-1.75.3-.2.55-.15.9-.15 1.5 0 2.15.6 2.8 2 0 0 .3.85 1.55.85h.85c.05-7.85-2.05-7.9-2.9-8.3z" opacity=".72" style="mix-blend-mode:soft-light"/>
                <path fill="url(#g)" d="M27.35 14.35H20.5c-1.5 0-2.75-1.25-2.75-2.75S19 8.85 20.5 8.85h5.19c.25 0 .5.2.55.45l1.11 5.05z"/>
                <path fill="url(#h)" d="M20.05 14.35h7.35s4.65-.25 4.6 4.7v.1c.05 1.9-1.05 3.5-2.95 3.5H23.4c0 .05.6-8.3-3.35-8.3z"/>
                <circle cx="30.3" cy="18.75" r="1" fill="#FFF"/>
                <circle cx="25.55" cy="18.75" r="1" fill="#FFF"/>
                <g transform="translate(15.5 19.5)">
                    <path fill="url(#i)" d="M2.85.1C1.35.1.15 1.3.15 2.8v.3a2.71 2.71 0 0 0 2.7 2.4c1.4 0 2.55-1.05 2.7-2.4v-.3c0-1.5-1.2-2.7-2.7-2.7z"/>
                    <circle cx="2.85" cy="2.8" r="1.15" fill="#FFF"/>
                </g>
                <path fill="#662D91" d="M4.3 22.65h9.15V4.009c0-2.205-1.8-4.009-4-4.009h-.8C4.05 0 .3 3.758.3 8.368v10.323c0 2.205 1.8 3.959 4 3.959z" opacity=".4" style="mix-blend-mode:soft-light"/>
            </g>
            <path fill="#662D91" d="M4.85 13.3h-5v-1h5c.3 0 .5.2.5.5s-.2.5-.5.5zM7 16.45H-.15v-1H7c.3 0 .5.2.5.5s-.2.5-.5.5zM9.2 19.25H-.15v-1H9.2c.3 0 .5.2.5.5s-.2.5-.5.5z"/>
            <g fill="#662D91" opacity=".4">
                <path d="M5.7 17.3c2-4.55.45-5.85-2.1-7.8-2.6-1.9.65-5 .65-5C1.65 5.9-.1 8.65-.1 11.85V22.4c0 2.05 1.65 3.7 3.7 3.7h8.25c-.65-2.15-8-4.6-6.15-8.8z" style="mix-blend-mode:soft-light"/>
                <path d="M5.7 17.3c2-4.55.45-5.85-2.1-7.8-2.6-1.9.65-5 .65-5C1.65 5.9-.1 8.65-.1 11.85V22.4c0 2.05 1.65 3.7 3.7 3.7h8.25c-.65-2.15-8-4.6-6.15-8.8z"/>
            </g>
            <g transform="translate(3.5 23)">
                <path fill="url(#j)" d="M2.8.1C1.3.1.1 1.3.1 2.8v.3a2.71 2.71 0 0 0 2.7 2.4c1.4 0 2.55-1.05 2.7-2.4v-.3C5.5 1.3 4.3.1 2.8.1z"/>
                <circle cx="2.8" cy="2.8" r="1.15" fill="#FFF"/>
            </g>
        </g>
    </g>
</svg>
