<svg xmlns="http://www.w3.org/2000/svg" xmlns:xlink="http://www.w3.org/1999/xlink" width="14" height="14"><defs><path id="a" d="M0 0h5.78v5.53H0z"/><path id="c" d="M0 0h5.78v5.53H0z"/></defs><g fill="none" fill-rule="evenodd"><mask id="b" fill="#fff"><use xlink:href="#a"/></mask><path fill="#FFF" d="M4.62 5.53H1.15C.52 5.53 0 5.03 0 4.43V1.1C0 .5.52 0 1.15 0h3.47c.64 0 1.16.5 1.16 1.1v3.32c0 .61-.52 1.1-1.16 1.1" mask="url(#b)"/><path fill="#FFF" d="M12.71 5.53H9.24c-.64 0-1.15-.5-1.15-1.1V1.1C8.09.5 8.6 0 9.24 0h3.47c.64 0 1.15.5 1.15 1.1v3.32c0 .61-.51 1.1-1.15 1.1"/><g transform="translate(0 7.74)"><mask id="d" fill="#fff"><use xlink:href="#c"/></mask><path fill="#FFF" d="M4.62 5.53H1.15C.52 5.53 0 5.03 0 4.43V1.1C0 .5.52 0 1.15 0h3.47c.64 0 1.16.5 1.16 1.1v3.32c0 .61-.52 1.1-1.16 1.1" mask="url(#d)"/></g><path fill="#FFF" d="M12.71 13.26H9.24c-.64 0-1.15-.5-1.15-1.1V8.84c0-.61.51-1.1 1.15-1.1h3.47c.64 0 1.15.49 1.15 1.1v3.32c0 .6-.51 1.1-1.15 1.1"/></g></svg>