<svg xmlns="http://www.w3.org/2000/svg" width="40" height="40" viewBox="0 0 24 24">
    <defs>
        <linearGradient id="a" x1="50.955%" x2="45.217%" y1="45.225%" y2="76.15%">
            <stop offset="0%" stop-color="#007BB5"/>
            <stop offset="100%" stop-color="#123D89"/>
        </linearGradient>
        <linearGradient id="b" x1="74.433%" x2="51.316%" y1="20.516%" y2="69.656%">
            <stop offset=".031%" stop-color="#FAC280"/>
            <stop offset="100%" stop-color="#F7931E"/>
        </linearGradient>
        <linearGradient id="c" x1="18.896%" x2="82.433%" y1="57.925%" y2="40.231%">
            <stop offset=".031%" stop-color="#0072A7"/>
            <stop offset="100%" stop-color="#41C3FF"/>
        </linearGradient>
    </defs>
    <g fill="none" fill-rule="nonzero">
        <path fill="url(#a)" d="M8.276 21.895a.827.827 0 0 1-.838-.838V12.31c0-.472.367-.839.838-.839.472 0 .838.367.838.839v8.747a.827.827 0 0 1-.838.838z" transform="translate(4 1)"/>
        <path fill="url(#b)" d="M16.029 13.619c.052-.68-.21-1.362-.577-1.833L9.272.996C8.851.21 7.7.21 7.28.995L.891 11.732a2.57 2.57 0 0 0-.577 1.834c.053 1.466 1.362 2.619 2.829 2.671v1.205c0 .524.419.995.995.995h8.329a.995.995 0 0 0 .995-.995v-1.205c1.362-.105 2.514-1.205 2.567-2.619z" transform="translate(4 1)"/>
        <path fill="url(#c)" d="M3.143 16.29v1.205c0 .524.419.995.995.995h8.329a.995.995 0 0 0 .995-.995V16.29H3.142z" transform="translate(4 1)"/>
        <path fill="#FDE2C2" d="M12.59 19.49h3.824a.995.995 0 0 0 .996-.995V17.29c1.361-.157 2.514-1.257 2.566-2.671.053-.68-.21-1.362-.576-1.833l-6.129-10.79c-.261-.42-.68-.63-1.1-.577-.052.367.053.786.21 1.1.314.471.68.786.995 1.152.629.681 1.153 1.415 1.362 2.305.262 1.048.105 2.148.052 3.195-.052 1.048.105 2.253.839 3.039.419.471.89.89 1.257 1.361.628.839.471 2.096-.21 2.986-.576.89-3.247 2.514-4.086 2.933z" opacity=".64" style="mix-blend-mode:soft-light"/>
    </g>
</svg>
