<svg version="1.1" id="Layer_1" xmlns="http://www.w3.org/2000/svg" x="0" y="0" viewBox="0 0 1000 358.81" xml:space="preserve"><style>.st0{fill:#93bf3e}.st1{fill:#fff}.st4{fill:#f19021}.st5{fill:#df2127}.st6{fill:#0094d9}</style><path class="st0" d="M158.02 33.51a6.23 6.23 0 00-11.9 1.32l-.02.02s-9.9-4.76-7.33.81c1.73 3.76 5.08 7.66 7.09 9.94 0 0 11.75-.19 15.11-1.67 1.47-2.74 3.52-7.46 4.33-11.2 1.23-5.75-6.63.27-7.28.78"/><path class="st1" d="M196.14 191.29a46.08 46.08 0 11-92.14 0 6.35 6.35 0 0112.71 0h.01a33.35 33.35 0 1066.7 0h.02a6.35 6.35 0 1112.7 0"/><path class="st0" d="M185.39 113.68l-6.08-52.53a4.11 4.11 0 00-1.89-2.7l-21.14-10.12-7.01.81s-17.1 14.19-17 14.13l-.5.41a4.07 4.07 0 00-1.17 3.77l6 51.87 48.79-5.64z"/><path d="M175.63 46.19c-.52-5.11-2.37-10.99-2.37-10.99l-15 8.45a7.15 7.15 0 00-10.49.93l-16.06-5.12s-1.01 6.72-.49 11.82c.54 5.2 2.78 10.46 2.78 10.46l14.03-8a7.21 7.21 0 0011.81-1.36l15.72 5.1c-.01.01.61-6.1.07-11.29" fill="#0aaf58"/><path d="M162.94 126.94c30.86-1.83 60.01-3.57 73.28-4.33l.24-.02.24.01.67.06 5.54-22a4.99 4.99 0 00-3.62-6.06l-67.75-17.07a5 5 0 00-6.06 3.62l-11.68 46.33 9.14-.54" fill="#e20a7e"/><path class="st4" d="M205.24 124.43l9.81-35.47-19.49-4.91-11.51 41.64 21.19-1.26"/><path class="st4" d="M235.76 78.17a10.68 10.68 0 00-2.28-2.78c-7.64-6.52-19.37 3.63-23.35 7.52a5.5 5.5 0 00-7.46-1.92c-2.26-5.52-8.71-18.63-18.06-15.89-1.09.32-2.17.86-3.21 1.61-3.21 2.31-3.53 4.79-3.23 6.46 1.23 6.87 16.52 11.74 21.8 13.23a5.5 5.5 0 0010.2 2.08l.2.03c5.02.76 21.68 2.8 25.71-3.12.96-1.42 1.68-3.81-.32-7.22m-51.16-4.28c-.88-.66-.74-2.09-.2-2.81.35-.46 1.12-.9 1.66-1.02 3.74-1.09 7.78 4.56 10.39 9.79-5.73-2.03-9.74-4.38-11.85-5.96m47.2 8.59c-1.37 2.01-7.59 2.16-15.15 1.55 4.52-3.7 10.51-7.22 13.48-4.69 1.64.98 2.1 2.49 1.67 3.14M67.85 132.67c.49-.1.97-.17 1.46-.21 15.97-.9 55.44-3.25 93.62-5.52l2.43-.14-8.65-39.13a4.82 4.82 0 00-5.75-3.67l-84.78 18.73a4.83 4.83 0 00-3.67 5.75l5.34 24.19z"/><path class="st1" d="M130.49 79.34l.28-.22-.28.22"/><path class="st5" d="M132.9 128.73l-8.64-39.11-30.78 6.8 7.56 34.2 31.86-1.89"/><path class="st5" d="M132.73 68.76a12.56 12.56 0 00-4.03-1.24c-10.95-1.33-15.95 13.91-17.69 21.13a5.25 5.25 0 00-6.71 1.59c-4.65-5.62-16.05-17.44-25.4-11.31a12.3 12.3 0 00-3.06 2.9c-2.82 3.7-2.34 6.59-1.42 8.36 3.82 7.5 23.54 7.57 29.5 7.42l1.44-.04a5.31 5.31 0 007.84-1.58l1.38-.64c5.4-2.5 23.05-11.31 23.15-19.72.01-2-.84-4.81-5-6.87m-52 19.5a2.22 2.22 0 01-.07-2.73 6.54 6.54 0 011.56-1.52c3.83-2.51 10.3 2.47 15.02 7.45-8.89-.4-15.15-1.42-16.51-3.2m37.08-1.38c1.99-6.44 5.51-13.63 9.97-13.09.63.08 1.32.3 2.03.65.94.46 1.56 1 1.56 1.31-.02 2.22-5.9 6.92-13.56 11.13"/><path class="st6" d="M244.61 309.12c-8.9-40.15-14.7-113.86-2.07-175.91a6.39 6.39 0 00-6.08-6.02c-29.52 1.69-137.91 8.22-166.87 9.85a6.36 6.36 0 00-5.97 6.35c0 .13.03.26.04.4 6.51 37.77 8.69 104.32-4.74 166.19a6.3 6.3 0 005.2 5.99h175.14a6.37 6.37 0 005.36-6.29c.02-.2 0-.37-.01-.56"/><path class="st1" d="M189.75 173.47a6.32 6.32 0 11.01-12.63 6.32 6.32 0 01-.01 12.63M110.87 173.78a6.31 6.31 0 110-12.62 6.31 6.31 0 010 12.62M196.09 192.02a45.78 45.78 0 01-91.54 0 6.3 6.3 0 1112.62 0h.01a33.13 33.13 0 1066.27 0h.01a6.3 6.3 0 1112.63 0"/><path class="st6" d="M693.13 143.72l-.57.06-.5.28c-11 6.29-20.42 18.72-23.99 31.66l-1.57 5.66 5.36-2.4c6.73-3.02 28.27-2.93 45.43 8.02 14.5 9.24 22.31 24.05 22.57 42.77 0 44.82-32.08 53.99-40.67 53.99-34.21 0-41.91-39.31-41.91-53.08V82.34l.01-2.77h-2.77c-16.53 0-31.88 7.68-42.12 21.07l-.57.74v.93c-.03 9.9 0 127.03 0 127.03 0 19.09 7.74 46.36 29.47 65.66 16.61 14.77 35 21.65 57.86 21.65 23.84 0 85.73-15.54 85.73-86.53-.21-21.28-6.25-38.48-19.01-54.13-22.58-27.71-59.4-33.77-72.75-32.27zM905.3 125.03a22.85 22.85 0 0022.84-22.82 22.86 22.86 0 00-22.84-22.84 22.86 22.86 0 00-22.84 22.84 22.85 22.85 0 0022.84 22.82zM882.87 165.15l-.57.75v150.35h2.77c16.29 0 32.54-7.76 42.41-20.25l.59-.75V144.23h-2.77a53.74 53.74 0 00-42.43 20.92zM563.53 79.67a22.87 22.87 0 00-22.84 22.84 22.85 22.85 0 0022.84 22.82 22.85 22.85 0 0022.84-22.82 22.87 22.87 0 00-22.84-22.84zM541.1 165.45l-.57.75v67.73 82.61h2.77c16.29 0 32.54-7.76 42.41-20.25l.6-.75v-7.46-143.55h-2.77a53.73 53.73 0 00-42.44 20.92zM351.37 143.72l-.57.06-.5.28c-11.01 6.3-20.42 18.72-23.98 31.66l-1.56 5.66 5.35-2.4c6.73-3.02 28.27-2.93 45.43 8.02 14.5 9.24 22.31 24.05 22.57 42.77 0 44.82-32.09 53.99-40.68 53.99-34.21 0-41.9-39.31-41.9-53.08V82.34l.01-2.77h-2.77c-16.53 0-31.89 7.68-42.13 21.07l-.57.74v.94 127.02c0 19.09 7.74 46.36 29.47 65.66 16.62 14.77 35.01 21.65 57.87 21.65 23.85 0 85.73-15.54 85.73-86.53-.21-21.28-6.26-38.48-19.02-54.13-22.6-27.71-59.46-33.79-72.75-32.27zM469.36 53.09l-.49.71v262.17h2.77c17.58 0 35.02-8.71 42.41-21.18l.39-.65V31.41h-2.77c-16.63 0-33.24 8.51-42.31 21.68zM811.13 53.09l-.49.71v262.17h2.77c17.58 0 35.02-8.71 42.41-21.18l.39-.65V31.41h-2.77c-16.63 0-33.24 8.51-42.31 21.68z"/></svg>