<svg id="Capa_1" enable-background="new 0 0 497 497" height="512" viewBox="0 0 497 497" width="512" xmlns="http://www.w3.org/2000/svg"><g><path d="m413.5 0h-30v497h30c16.57 0 30-13.43 30-30v-437c0-16.57-13.43-30-30-30z" fill="#404242"/><path d="m383.5 0h-300c-16.57 0-30 13.43-30 30v437c0 16.57 13.43 30 30 30h300c16.57 0 30-13.43 30-30v-30l-90-188.5 90-188.5v-30c0-16.57-13.43-30-30-30z" fill="#565959"/><path d="m248.5 474.5h-60c-4.142 0-7.5-3.357-7.5-7.5s3.358-7.5 7.5-7.5h60c4.142 0 7.5 3.357 7.5 7.5s-3.358 7.5-7.5 7.5z" fill="#6f706f"/><path d="m278.5 248.5 105 188.5h30v-377h-30z" fill="#4b88d5"/><path d="m297.133 60c-9.144 9.139-16.831 16.82-16.844 16.82-8.147 8.139-19.39 13.18-31.789 13.18s-23.642-5.041-31.82-13.18l-16.82-16.82h-116.36v377h300v-377z" fill="#69a7ff"/><circle cx="248.5" cy="45" fill="#deecff" r="15"/><g fill="#404242"><circle cx="278.5" cy="467" r="7.5"/><circle cx="308.5" cy="467" r="7.5"/></g></g></svg>